<svg width="1000" height="1000" viewBox="0 0 1000 1000" xmlns="http://www.w3.org/2000/svg">
    <defs />
    <path fill="#ff0000" d="M 0 0 L 1000 0 L 1000 1000 L 0 1000 Z" />
    <path fill="#ffffff"
        transform="matrix(0.5858629375967376 0 0 0.5858629375967376 2.0706853120163125 -45.25232232317265)"
        d="M 596.49816159186 930.68239571502 C 596.49816159186 985.35858594827 552.17435182511 1029.68239571502 497.49816159186 1029.68239571502 C 442.82197135861 1029.68239571502 398.49816159186 985.35858594827 398.49816159186 930.68239571502 C 398.49816159186 876.00620548177 442.82197135861 831.68239571502 497.49816159186 831.68239571502 C 552.17435182511 831.68239571502 596.49816159186 876.00620548177 596.49816159186 930.68239571502 Z" />
    <path fill="#000000"
        transform="matrix(0.5858629375967376 0 0 0.5858629375967376 2.0706853120163125 -45.25232232317265)"
        d="M 396.79816159186 742.18239571502 L 371.79816159186 726.08239571502 C 365.99816159186 722.38239571502 358.39816159186 723.18239571502 353.49816159186 728.08239571502 L 294.79816159186 786.78239571502 C 291.89816159186 789.68239571502 290.49816159186 793.58239571502 290.59816159186 797.38239571502 C 294.19816159186 805.08239571502 298.19816159186 812.68239571502 302.49816159186 819.98239571502 L 313.69816159186 837.38239571502 C 313.69816159186 837.38239571502 313.69816159186 837.48239571502 313.69816159186 837.48239571502 C 327.49816159186 857.48239571502 343.89816159186 875.48239571502 362.19816159186 891.18239571502 C 362.89816159186 888.78239571502 363.79816159186 886.38239571502 364.59816159186 883.98239571502 C 364.29816159186 878.78239571502 364.09816159186 873.58239571502 364.09816159186 868.28239571502 C 364.09816159186 822.58239571502 375.99816159186 779.58239571502 396.79816159186 742.18239571502 Z" />
    <g opacity="0.95"
        transform="matrix(0.5858629375967376 0 0 0.5858629375967376 2.0706853120163125 -45.25232232317265)">
        <path fill="#ffffff"
            d="M 553.29816159186 697.18239571502 C 551.79816159186 690.48239571502 545.89816159186 685.68239571502 538.99816159186 685.68239571502 L 455.99816159186 685.68239571502 C 449.09816159186 685.68239571502 443.19816159186 690.48239571502 441.69816159186 697.18239571502 L 433.49816159186 734.88239571502 C 423.49816159186 738.18239571502 413.69816159186 742.18239571502 404.29816159186 746.98239571502 L 396.89816159186 742.18239571502 C 376.09816159186 779.58239571502 364.19816159186 822.58239571502 364.19816159186 868.38239571502 C 364.19816159186 873.68239571502 364.39816159186 878.88239571502 364.69816159186 884.08239571502 C 383.39816159186 830.98239571502 432.89816159186 792.38239571502 491.69816159186 789.88239571502 C 511.29816159186 766.18239571502 534.29816159186 745.38239571502 560.09816159186 728.18239571502 L 553.29816159186 697.18239571502 Z" />
    </g>
    <path fill="#000000"
        transform="matrix(0.5858629375967376 0 0 0.5858629375967376 2.0706853120163125 -45.25232232317265)"
        d="M 685.99816159186 829.98239571502 L 702.09816159186 804.98239571502 C 705.79816159186 799.18239571502 704.99816159186 791.58239571502 700.09816159186 786.68239571502 L 641.39816159186 727.98239571502 C 638.49816159186 725.08239571502 634.59816159186 723.68239571502 630.79816159186 723.78239571502 C 623.09816159186 727.38239571502 615.49816159186 731.38239571502 608.19816159186 735.68239571502 L 590.79816159186 746.88239571502 C 590.79816159186 746.88239571502 590.69816159186 746.88239571502 590.69816159186 746.88239571502 C 570.69816159186 760.68239571502 552.69816159186 777.08239571502 536.99816159186 795.38239571502 C 539.39816159186 796.08239571502 541.79816159186 796.98239571502 544.19816159186 797.78239571502 C 549.39816159186 797.48239571502 554.59816159186 797.28239571502 559.89816159186 797.28239571502 C 605.59816159186 797.28239571502 648.59816159186 809.18239571502 685.99816159186 829.98239571502 Z" />
    <g opacity="0.95"
        transform="matrix(0.5858629375967376 0 0 0.5858629375967376 2.0706853120163125 -45.25232232317265)">
        <path fill="#ffffff"
            d="M 730.99816159186 986.48239571502 C 737.69816159186 984.98239571502 742.49816159186 979.08239571502 742.49816159186 972.18239571502 L 742.49816159186 889.18239571502 C 742.49816159186 882.28239571502 737.69816159186 876.38239571502 730.99816159186 874.88239571502 L 693.29816159186 866.68239571502 C 689.99816159186 856.68239571502 685.99816159186 846.88239571502 681.19816159186 837.48239571502 L 685.99816159186 830.08239571502 C 648.59816159186 809.28239571502 605.59816159186 797.38239571502 559.79816159186 797.38239571502 C 554.49816159186 797.38239571502 549.29816159186 797.58239571502 544.09816159186 797.88239571502 C 597.19816159186 816.58239571502 635.79816159186 866.08239571502 638.29816159186 924.88239571502 C 661.99816159186 944.48239571502 682.79816159186 967.48239571502 699.99816159186 993.28239571502 L 730.99816159186 986.48239571502 Z" />
    </g>
    <path fill="#000000"
        transform="matrix(0.5858629375967376 0 0 0.5858629375967376 2.0706853120163125 -45.25232232317265)"
        d="M 598.19816159186 1119.18239571502 L 623.19816159186 1135.28239571502 C 628.99816159186 1138.98239571502 636.59816159186 1138.18239571502 641.49816159186 1133.28239571502 L 700.19816159186 1074.58239571502 C 703.09816159186 1071.68239571502 704.49816159186 1067.78239571502 704.39816159186 1063.98239571502 C 700.79816159186 1056.28239571502 696.79816159186 1048.68239571502 692.49816159186 1041.38239571502 L 681.29816159186 1023.98239571502 C 681.29816159186 1023.98239571502 681.29816159186 1023.88239571502 681.29816159186 1023.88239571502 C 667.49816159186 1003.88239571502 651.09816159186 985.88239571502 632.79816159186 970.18239571502 C 632.09816159186 972.58239571502 631.19816159186 974.98239571502 630.39816159186 977.38239571502 C 630.69816159186 982.58239571502 630.89816159186 987.78239571502 630.89816159186 993.08239571502 C 630.89816159186 1038.78239571502 618.99816159186 1081.78239571502 598.19816159186 1119.18239571502 Z" />
    <g opacity="0.95"
        transform="matrix(0.5858629375967376 0 0 0.5858629375967376 2.0706853120163125 -45.25232232317265)">
        <path fill="#ffffff"
            d="M 441.69816159186 1164.18239571502 C 443.19816159186 1170.88239571502 449.09816159186 1175.68239571502 455.99816159186 1175.68239571502 L 538.99816159186 1175.68239571502 C 545.89816159186 1175.68239571502 551.79816159186 1170.88239571502 553.29816159186 1164.18239571502 L 561.49816159186 1126.48239571502 C 571.49816159186 1123.18239571502 581.29816159186 1119.18239571502 590.69816159186 1114.38239571502 L 598.09816159186 1119.18239571502 C 618.89816159186 1081.78239571502 630.79816159186 1038.78239571502 630.79816159186 992.98239571502 C 630.79816159186 987.68239571502 630.59816159186 982.48239571502 630.29816159186 977.28239571502 C 611.59816159186 1030.38239571502 562.09816159186 1068.98239571502 503.29816159186 1071.48239571502 C 483.69816159186 1095.18239571502 460.69816159186 1115.98239571502 434.89816159186 1133.18239571502 L 441.69816159186 1164.18239571502 Z" />
    </g>
    <path fill="#000000"
        transform="matrix(0.5858629375967376 0 0 0.5858629375967376 2.0706853120163125 -45.25232232317265)"
        d="M 308.99816159186 1031.38239571502 L 292.89816159186 1056.38239571502 C 289.19816159186 1062.18239571502 289.99816159186 1069.78239571502 294.89816159186 1074.68239571502 L 353.59816159186 1133.38239571502 C 356.49816159186 1136.28239571502 360.39816159186 1137.68239571502 364.19816159186 1137.58239571502 C 371.89816159186 1133.98239571502 379.49816159186 1129.98239571502 386.79816159186 1125.68239571502 L 404.19816159186 1114.48239571502 C 404.19816159186 1114.48239571502 404.29816159186 1114.48239571502 404.29816159186 1114.48239571502 C 424.29816159186 1100.68239571502 442.29816159186 1084.28239571502 457.99816159186 1065.98239571502 C 455.59816159186 1065.28239571502 453.19816159186 1064.38239571502 450.79816159186 1063.58239571502 C 445.59816159186 1063.88239571502 440.39816159186 1064.08239571502 435.09816159186 1064.08239571502 C 389.39816159186 1064.08239571502 346.39816159186 1052.18239571502 308.99816159186 1031.38239571502 Z" />
    <g opacity="0.95"
        transform="matrix(0.5858629375967376 0 0 0.5858629375967376 2.0706853120163125 -45.25232232317265)">
        <path fill="#ffffff"
            d="M 263.99816159186 874.88239571502 C 257.29816159186 876.38239571502 252.49816159186 882.28239571502 252.49816159186 889.18239571502 L 252.49816159186 972.18239571502 C 252.49816159186 979.08239571502 257.29816159186 984.98239571502 263.99816159186 986.48239571502 L 301.69816159186 994.68239571502 C 304.99816159186 1004.68239571502 308.99816159186 1014.48239571502 313.79816159186 1023.88239571502 L 308.99816159186 1031.28239571502 C 346.39816159186 1052.08239571502 389.39816159186 1063.98239571502 435.19816159186 1063.98239571502 C 440.49816159186 1063.98239571502 445.69816159186 1063.78239571502 450.89816159186 1063.48239571502 C 397.79816159186 1044.78239571502 359.19816159186 995.28239571502 356.69816159186 936.48239571502 C 332.99816159186 916.88239571502 312.19816159186 893.88239571502 294.99816159186 868.08239571502 L 263.99816159186 874.88239571502 Z" />
    </g>
    <path id="text" fill="#ececec"
        transform="matrix(1.547598976646492 0 0 1.547598976646492 298.2068382429468 82.77457631040247)"
        d="M 100.39664779762 207.76343359454 L 115.91227279762 207.76343359454 C 122.22477279762 207.76343359454 126.56852279762 209.70874609454 128.94352279762 213.59937109454 C 131.31852279762 217.48999609454 132.50602279762 223.01343359454 132.50602279762 230.16968359454 L 132.55289779762 266.40405859454 C 132.55289779762 274.87280859454 131.25602279762 280.96655859454 128.66227279762 284.68530859454 C 126.06852279762 288.40405859454 121.70914779762 290.26343359454 115.58414779762 290.26343359454 L 100.39664779762 290.26343359454 L 100.39664779762 207.76343359454 Z M 122.84977279762 229.93530859454 C 122.84977279762 224.77905859454 122.24039779762 221.07593359454 121.02164779762 218.82593359454 C 119.80289779762 216.57593359454 117.80289779762 215.45093359454 115.02164779762 215.45093359454 L 110.05289779762 215.45093359454 L 110.05289779762 282.43530859454 L 115.02164779762 282.43530859454 C 116.89664779762 282.43530859454 118.36539779762 282.06030859454 119.42789779762 281.31030859454 C 121.70914779762 279.68530859454 122.84977279762 275.21655859454 122.84977279762 267.90405859454 L 122.84977279762 229.93530859454 Z M 150.61439779762 242.12280859454 C 150.61439779762 230.71655859454 153.23939779762 223.60718359454 158.48939779762 220.79468359454 C 160.61439779762 219.66968359454 163.08314779762 219.10718359454 165.89564779762 219.10718359454 C 173.23939779762 219.10718359454 177.92689779762 222.06030859454 179.95814779762 227.96655859454 C 181.20814779762 231.68530859454 181.83314779762 236.40405859454 181.83314779762 242.12280859454 L 181.83314779762 267.01343359454 C 181.83314779762 276.88843359454 180.50502279762 283.37280859454 177.84877279762 286.46655859454 C 175.19252279762 289.56030859454 171.34877279762 291.10718359454 166.31752279762 291.10718359454 C 158.97377279762 291.10718359454 154.30189779762 287.98218359454 152.30189779762 281.73218359454 C 151.17689779762 278.13843359454 150.61439779762 273.23218359454 150.61439779762 267.01343359454 L 150.61439779762 242.12280859454 Z M 172.17689779762 240.20093359454 C 172.17689779762 233.51343359454 171.22377279762 229.45093359454 169.31752279762 228.01343359454 C 168.53627279762 227.41968359454 167.52064779762 227.12280859454 166.27064779762 227.12280859454 C 163.73939779762 227.12280859454 162.10658529762 228.26343359454 161.37221029762 230.54468359454 C 160.63783529762 232.82593359454 160.27064779762 236.04468359454 160.27064779762 240.20093359454 L 160.27064779762 269.68530859454 C 160.27064779762 276.59155859454 161.23939779762 280.76343359454 163.17689779762 282.20093359454 C 163.95814779762 282.79468359454 164.92689779762 283.09155859454 166.08314779762 283.09155859454 C 166.14564779762 283.09155859454 166.20814779762 283.09155859454 166.27064779762 283.09155859454 C 168.73939779762 283.09155859454 170.34096029762 281.92749609454 171.07533529762 279.59937109454 C 171.80971029762 277.27124609454 172.17689779762 273.96655859454 172.17689779762 269.68530859454 L 172.17689779762 240.20093359454 Z M 202.84777279762 207.76343359454 L 212.45714779762 207.76343359454 L 212.45714779762 220.51343359454 L 220.05089779762 220.51343359454 L 220.05089779762 227.63843359454 L 212.45714779762 227.63843359454 L 212.45714779762 278.96655859454 C 212.45714779762 280.77905859454 212.87902279762 281.91187109454 213.72277279762 282.36499609454 C 214.56652279762 282.81812109454 216.70714779762 283.04468359454 220.14464779762 283.04468359454 L 220.14464779762 290.68530859454 L 213.53527279762 290.68530859454 C 209.09777279762 290.68530859454 206.20714779762 289.88062109454 204.86339779762 288.27124609454 C 203.51964779762 286.66187109454 202.84777279762 283.84155859454 202.84777279762 279.81030859454 L 202.84777279762 227.63843359454 L 196.42589779762 227.63843359454 L 196.42589779762 220.51343359454 L 202.84777279762 220.51343359454 L 202.84777279762 207.76343359454 Z M 231.59677279762 219.95093359454 L 240.08114779762 219.95093359454 L 247.48739779762 242.40405859454 L 254.04989779762 219.95093359454 L 262.76864779762 219.95093359454 L 251.42489779762 254.35718359454 L 263.23739779762 290.26343359454 L 254.28427279762 290.26343359454 L 246.59677279762 266.35718359454 L 239.51864779762 290.26343359454 L 230.79989779762 290.26343359454 L 242.61239779762 254.02905859454 L 231.59677279762 219.95093359454 Z M 276.84577279762 241.74780859454 C 276.84577279762 232.87280859454 278.43952279762 226.70093359454 281.62702279762 223.23218359454 C 284.12702279762 220.48218359454 287.81452279762 219.10718359454 292.68952279762 219.10718359454 C 299.75202279762 219.10718359454 304.18952279762 222.15405859454 306.00202279762 228.24780859454 C 307.00202279762 231.68530859454 307.50202279762 236.32593359454 307.50202279762 242.16968359454 L 307.50202279762 255.43530859454 L 286.50202279762 255.43530859454 L 286.50202279762 269.45093359454 C 286.50202279762 275.54468359454 286.98639779762 279.34155859454 287.95514779762 280.84155859454 C 288.92389779762 282.34155859454 290.45514779762 283.09155859454 292.54889779762 283.09155859454 C 294.64264779762 283.09155859454 296.04108529762 282.21655859454 296.74421029762 280.46655859454 C 297.44733529762 278.71655859454 297.81452279762 276.81812109454 297.84577279762 274.77124609454 C 297.87702279762 272.72437109454 297.89264779762 270.99780859454 297.89264779762 269.59155859454 L 297.89264779762 263.91968359454 L 307.31452279762 263.91968359454 L 307.31452279762 266.91968359454 C 307.31452279762 274.38843359454 306.79108529762 279.62280859454 305.74421029762 282.62280859454 C 304.69733529762 285.62280859454 303.11139779762 287.78687109454 300.98639779762 289.11499609454 C 298.86139779762 290.44312109454 296.22858529762 291.10718359454 293.08796029762 291.10718359454 C 289.94733529762 291.10718359454 287.43171029762 290.70874609454 285.54108529762 289.91187109454 C 283.65046029762 289.11499609454 282.15046029762 288.06030859454 281.04108529762 286.74780859454 C 279.93171029762 285.43530859454 278.95514779762 283.34155859454 278.11139779762 280.46655859454 C 277.26764779762 277.59155859454 276.84577279762 272.96655859454 276.84577279762 266.59155859454 L 276.84577279762 241.74780859454 Z M 297.89264779762 239.96655859454 C 297.89264779762 234.96655859454 297.71296029762 231.95093359454 297.35358529762 230.91968359454 C 296.99421029762 229.88843359454 296.53327279762 228.98218359454 295.97077279762 228.20093359454 C 295.40827279762 227.41968359454 294.39264779762 227.02905859454 292.92389779762 227.02905859454 C 290.11139779762 227.02905859454 288.33014779762 228.20874609454 287.58014779762 230.56812109454 C 286.83014779762 232.92749609454 286.45514779762 236.16968359454 286.45514779762 240.29468359454 L 286.45514779762 248.91968359454 L 297.89264779762 248.91968359454 L 297.89264779762 239.96655859454 Z M 325.32914779762 242.12280859454 C 325.32914779762 230.71655859454 327.95414779762 223.60718359454 333.20414779762 220.79468359454 C 335.32914779762 219.66968359454 337.79789779762 219.10718359454 340.61039779762 219.10718359454 C 347.95414779762 219.10718359454 352.64164779762 222.06030859454 354.67289779762 227.96655859454 C 355.92289779762 231.68530859454 356.54789779762 236.40405859454 356.54789779762 242.12280859454 L 356.54789779762 267.01343359454 C 356.54789779762 276.88843359454 355.21977279762 283.37280859454 352.56352279762 286.46655859454 C 349.90727279762 289.56030859454 346.06352279762 291.10718359454 341.03227279762 291.10718359454 C 333.68852279762 291.10718359454 329.01664779762 287.98218359454 327.01664779762 281.73218359454 C 325.89164779762 278.13843359454 325.32914779762 273.23218359454 325.32914779762 267.01343359454 L 325.32914779762 242.12280859454 Z M 346.89164779762 240.20093359454 C 346.89164779762 233.51343359454 345.93852279762 229.45093359454 344.03227279762 228.01343359454 C 343.25102279762 227.41968359454 342.23539779762 227.12280859454 340.98539779762 227.12280859454 C 338.45414779762 227.12280859454 336.82133529762 228.26343359454 336.08696029762 230.54468359454 C 335.35258529762 232.82593359454 334.98539779762 236.04468359454 334.98539779762 240.20093359454 L 334.98539779762 269.68530859454 C 334.98539779762 276.59155859454 335.95414779762 280.76343359454 337.89164779762 282.20093359454 C 338.67289779762 282.79468359454 339.64164779762 283.09155859454 340.79789779762 283.09155859454 C 340.86039779762 283.09155859454 340.92289779762 283.09155859454 340.98539779762 283.09155859454 C 343.45414779762 283.09155859454 345.05571029762 281.92749609454 345.79008529762 279.59937109454 C 346.52446029762 277.27124609454 346.89164779762 273.96655859454 346.89164779762 269.68530859454 L 346.89164779762 240.20093359454 Z" />
    <path id="text" fill="#000000"
        transform="matrix(0.2579331627744153 0 0 0.2579331627744153 306.59963514985645 139.84344927347433)"
        d="M 576.56123678571 1736.10860156721 L 600.65723678571 1736.10860156721 L 600.65723678571 1741.58060156721 L 569.84123678571 1741.58060156721 L 569.84123678571 1674.47660156721 L 576.56123678571 1674.47660156721 L 576.56123678571 1736.10860156721 Z M 619.90523678571 1739.03660156721 C 615.96923678571 1736.82860156721 612.86523678571 1733.69260156721 610.59323678571 1729.62860156721 C 608.32123678571 1725.56460156721 607.18523678571 1720.81260156721 607.18523678571 1715.37260156721 C 607.18523678571 1709.93260156721 608.33723678571 1705.18060156721 610.64123678571 1701.11660156721 C 612.94523678571 1697.05260156721 616.08123678571 1693.91660156721 620.04923678571 1691.70860156721 C 624.01723678571 1689.50060156721 628.46523678571 1688.39660156721 633.39323678571 1688.39660156721 C 638.32123678571 1688.39660156721 642.78523678571 1689.50060156721 646.78523678571 1691.70860156721 C 650.78523678571 1693.91660156721 653.92123678571 1697.05260156721 656.19323678571 1701.11660156721 C 658.46523678571 1705.18060156721 659.60123678571 1709.93260156721 659.60123678571 1715.37260156721 C 659.60123678571 1720.74860156721 658.44923678571 1725.48460156721 656.14523678571 1729.58060156721 C 653.84123678571 1733.67660156721 650.67323678571 1736.82860156721 646.64123678571 1739.03660156721 C 642.60923678571 1741.24460156721 638.12923678571 1742.34860156721 633.20123678571 1742.34860156721 C 628.27323678571 1742.34860156721 623.84123678571 1741.24460156721 619.90523678571 1739.03660156721 Z M 642.80123678571 1734.14060156721 C 645.74523678571 1732.57260156721 648.12923678571 1730.20460156721 649.95323678571 1727.03660156721 C 651.77723678571 1723.86860156721 652.68923678571 1719.98060156721 652.68923678571 1715.37260156721 C 652.68923678571 1710.76460156721 651.79323678571 1706.87660156721 650.00123678571 1703.70860156721 C 648.20923678571 1700.54060156721 645.84123678571 1698.17260156721 642.89723678571 1696.60460156721 C 639.95323678571 1695.03660156721 636.75323678571 1694.25260156721 633.29723678571 1694.25260156721 C 629.84123678571 1694.25260156721 626.64123678571 1695.03660156721 623.69723678571 1696.60460156721 C 620.75323678571 1698.17260156721 618.40123678571 1700.54060156721 616.64123678571 1703.70860156721 C 614.88123678571 1706.87660156721 614.00123678571 1710.76460156721 614.00123678571 1715.37260156721 C 614.00123678571 1719.98060156721 614.88123678571 1723.86860156721 616.64123678571 1727.03660156721 C 618.40123678571 1730.20460156721 620.73723678571 1732.57260156721 623.64923678571 1734.14060156721 C 626.56123678571 1735.70860156721 629.74523678571 1736.49260156721 633.20123678571 1736.49260156721 C 636.65723678571 1736.49260156721 639.85723678571 1735.70860156721 642.80123678571 1734.14060156721 Z M 704.91323678571 1674.47660156721 L 704.91323678571 1741.58060156721 L 698.19323678571 1741.58060156721 L 698.19323678571 1674.47660156721 L 704.91323678571 1674.47660156721 Z M 797.60123678571 1694.01260156721 C 801.47323678571 1697.88460156721 803.40923678571 1703.50060156721 803.40923678571 1710.86060156721 L 803.40923678571 1741.58060156721 L 796.78523678571 1741.58060156721 L 796.78523678571 1711.62860156721 C 796.78523678571 1705.93260156721 795.40923678571 1701.58060156721 792.65723678571 1698.57260156721 C 789.90523678571 1695.56460156721 786.16123678571 1694.06060156721 781.42523678571 1694.06060156721 C 776.49723678571 1694.06060156721 772.56123678571 1695.69260156721 769.61723678571 1698.95660156721 C 766.67323678571 1702.22060156721 765.20123678571 1706.95660156721 765.20123678571 1713.16460156721 L 765.20123678571 1741.58060156721 L 758.57723678571 1741.58060156721 L 758.57723678571 1711.62860156721 C 758.57723678571 1705.93260156721 757.20123678571 1701.58060156721 754.44923678571 1698.57260156721 C 751.69723678571 1695.56460156721 747.92123678571 1694.06060156721 743.12123678571 1694.06060156721 C 738.19323678571 1694.06060156721 734.25723678571 1695.69260156721 731.31323678571 1698.95660156721 C 728.36923678571 1702.22060156721 726.89723678571 1706.95660156721 726.89723678571 1713.16460156721 L 726.89723678571 1741.58060156721 L 720.17723678571 1741.58060156721 L 720.17723678571 1689.16460156721 L 726.89723678571 1689.16460156721 L 726.89723678571 1698.18860156721 C 728.56123678571 1694.92460156721 730.92923678571 1692.44460156721 734.00123678571 1690.74860156721 C 737.07323678571 1689.05260156721 740.49723678571 1688.20460156721 744.27323678571 1688.20460156721 C 748.81723678571 1688.20460156721 752.80123678571 1689.29260156721 756.22523678571 1691.46860156721 C 759.64923678571 1693.64460156721 762.12923678571 1696.84460156721 763.66523678571 1701.06860156721 C 765.07323678571 1696.90860156721 767.48923678571 1693.72460156721 770.91323678571 1691.51660156721 C 774.33723678571 1689.30860156721 778.22523678571 1688.20460156721 782.57723678571 1688.20460156721 C 788.72123678571 1688.20460156721 793.72923678571 1690.14060156721 797.60123678571 1694.01260156721 Z M 818.43323678571 1701.11660156721 C 820.57723678571 1697.05260156721 823.55323678571 1693.91660156721 827.36123678571 1691.70860156721 C 831.16923678571 1689.50060156721 835.47323678571 1688.39660156721 840.27323678571 1688.39660156721 C 845.26523678571 1688.39660156721 849.56923678571 1689.54860156721 853.18523678571 1691.85260156721 C 856.80123678571 1694.15660156721 859.40923678571 1697.10060156721 861.00923678571 1700.68460156721 L 861.00923678571 1689.16460156721 L 867.72923678571 1689.16460156721 L 867.72923678571 1741.58060156721 L 861.00923678571 1741.58060156721 L 861.00923678571 1729.96460156721 C 859.34523678571 1733.54860156721 856.70523678571 1736.50860156721 853.08923678571 1738.84460156721 C 849.47323678571 1741.18060156721 845.16923678571 1742.34860156721 840.17723678571 1742.34860156721 C 835.44123678571 1742.34860156721 831.16923678571 1741.22860156721 827.36123678571 1738.98860156721 C 823.55323678571 1736.74860156721 820.57723678571 1733.58060156721 818.43323678571 1729.48460156721 C 816.28923678571 1725.38860156721 815.21723678571 1720.65260156721 815.21723678571 1715.27660156721 C 815.21723678571 1709.90060156721 816.28923678571 1705.18060156721 818.43323678571 1701.11660156721 Z M 858.41723678571 1704.23660156721 C 856.68923678571 1701.03660156721 854.33723678571 1698.57260156721 851.36123678571 1696.84460156721 C 848.38523678571 1695.11660156721 845.10523678571 1694.25260156721 841.52123678571 1694.25260156721 C 837.80923678571 1694.25260156721 834.48123678571 1695.08460156721 831.53723678571 1696.74860156721 C 828.59323678571 1698.41260156721 826.27323678571 1700.82860156721 824.57723678571 1703.99660156721 C 822.88123678571 1707.16460156721 822.03323678571 1710.92460156721 822.03323678571 1715.27660156721 C 822.03323678571 1719.56460156721 822.88123678571 1723.32460156721 824.57723678571 1726.55660156721 C 826.27323678571 1729.78860156721 828.59323678571 1732.25260156721 831.53723678571 1733.94860156721 C 834.48123678571 1735.64460156721 837.80923678571 1736.49260156721 841.52123678571 1736.49260156721 C 845.10523678571 1736.49260156721 848.38523678571 1735.62860156721 851.36123678571 1733.90060156721 C 854.33723678571 1732.17260156721 856.68923678571 1729.70860156721 858.41723678571 1726.50860156721 C 860.14523678571 1723.30860156721 861.00923678571 1719.59660156721 861.00923678571 1715.37260156721 C 861.00923678571 1711.14860156721 860.14523678571 1707.43660156721 858.41723678571 1704.23660156721 Z M 917.93723678571 1691.85260156721 C 921.58523678571 1694.15660156721 924.20923678571 1697.06860156721 925.80923678571 1700.58860156721 L 925.80923678571 1689.16460156721 L 932.52923678571 1689.16460156721 L 932.52923678571 1742.92460156721 C 932.52923678571 1747.72460156721 931.48923678571 1751.98060156721 929.40923678571 1755.69260156721 C 927.32923678571 1759.40460156721 924.43323678571 1762.26860156721 920.72123678571 1764.28460156721 C 917.00923678571 1766.30060156721 912.78523678571 1767.30860156721 908.04923678571 1767.30860156721 C 901.32923678571 1767.30860156721 895.74523678571 1765.70860156721 891.29723678571 1762.50860156721 C 886.84923678571 1759.30860156721 884.08123678571 1754.95660156721 882.99323678571 1749.45260156721 L 889.61723678571 1749.45260156721 C 890.76923678571 1753.10060156721 892.96123678571 1756.01260156721 896.19323678571 1758.18860156721 C 899.42523678571 1760.36460156721 903.37723678571 1761.45260156721 908.04923678571 1761.45260156721 C 911.44123678571 1761.45260156721 914.48123678571 1760.73260156721 917.16923678571 1759.29260156721 C 919.85723678571 1757.85260156721 921.96923678571 1755.72460156721 923.50523678571 1752.90860156721 C 925.04123678571 1750.09260156721 925.80923678571 1746.76460156721 925.80923678571 1742.92460156721 L 925.80923678571 1729.96460156721 C 924.14523678571 1733.54860156721 921.50523678571 1736.50860156721 917.88923678571 1738.84460156721 C 914.27323678571 1741.18060156721 910.00123678571 1742.34860156721 905.07323678571 1742.34860156721 C 900.27323678571 1742.34860156721 895.96923678571 1741.22860156721 892.16123678571 1738.98860156721 C 888.35323678571 1736.74860156721 885.37723678571 1733.58060156721 883.23323678571 1729.48460156721 C 881.08923678571 1725.38860156721 880.01723678571 1720.65260156721 880.01723678571 1715.27660156721 C 880.01723678571 1709.90060156721 881.08923678571 1705.18060156721 883.23323678571 1701.11660156721 C 885.37723678571 1697.05260156721 888.35323678571 1693.91660156721 892.16123678571 1691.70860156721 C 895.96923678571 1689.50060156721 900.27323678571 1688.39660156721 905.07323678571 1688.39660156721 C 910.00123678571 1688.39660156721 914.28923678571 1689.54860156721 917.93723678571 1691.85260156721 Z M 923.21723678571 1704.23660156721 C 921.48923678571 1701.03660156721 919.13723678571 1698.57260156721 916.16123678571 1696.84460156721 C 913.18523678571 1695.11660156721 909.90523678571 1694.25260156721 906.32123678571 1694.25260156721 C 902.60923678571 1694.25260156721 899.28123678571 1695.08460156721 896.33723678571 1696.74860156721 C 893.39323678571 1698.41260156721 891.07323678571 1700.82860156721 889.37723678571 1703.99660156721 C 887.68123678571 1707.16460156721 886.83323678571 1710.92460156721 886.83323678571 1715.27660156721 C 886.83323678571 1719.56460156721 887.68123678571 1723.32460156721 889.37723678571 1726.55660156721 C 891.07323678571 1729.78860156721 893.39323678571 1732.25260156721 896.33723678571 1733.94860156721 C 899.28123678571 1735.64460156721 902.60923678571 1736.49260156721 906.32123678571 1736.49260156721 C 909.90523678571 1736.49260156721 913.18523678571 1735.62860156721 916.16123678571 1733.90060156721 C 919.13723678571 1732.17260156721 921.48923678571 1729.70860156721 923.21723678571 1726.50860156721 C 924.94523678571 1723.30860156721 925.80923678571 1719.59660156721 925.80923678571 1715.37260156721 C 925.80923678571 1711.14860156721 924.94523678571 1707.43660156721 923.21723678571 1704.23660156721 Z M 947.79323678571 1677.83660156721 C 946.83323678571 1676.87660156721 946.35323678571 1675.69260156721 946.35323678571 1674.28460156721 C 946.35323678571 1672.87660156721 946.83323678571 1671.70860156721 947.79323678571 1670.78060156721 C 948.75323678571 1669.85260156721 949.90523678571 1669.38860156721 951.24923678571 1669.38860156721 C 952.59323678571 1669.38860156721 953.74523678571 1669.85260156721 954.70523678571 1670.78060156721 C 955.66523678571 1671.70860156721 956.14523678571 1672.87660156721 956.14523678571 1674.28460156721 C 956.14523678571 1675.69260156721 955.66523678571 1676.87660156721 954.70523678571 1677.83660156721 C 953.74523678571 1678.79660156721 952.59323678571 1679.27660156721 951.24923678571 1679.27660156721 C 949.90523678571 1679.27660156721 948.75323678571 1678.79660156721 947.79323678571 1677.83660156721 Z M 954.60923678571 1689.16460156721 L 954.60923678571 1741.58060156721 L 947.88923678571 1741.58060156721 L 947.88923678571 1689.16460156721 L 954.60923678571 1689.16460156721 Z M 1009.80923678571 1694.01260156721 C 1013.77723678571 1697.88460156721 1015.76123678571 1703.50060156721 1015.76123678571 1710.86060156721 L 1015.76123678571 1741.58060156721 L 1009.13723678571 1741.58060156721 L 1009.13723678571 1711.62860156721 C 1009.13723678571 1705.93260156721 1007.71323678571 1701.58060156721 1004.86523678571 1698.57260156721 C 1002.01723678571 1695.56460156721 998.12923678571 1694.06060156721 993.20123678571 1694.06060156721 C 988.14523678571 1694.06060156721 984.11323678571 1695.66060156721 981.10523678571 1698.86060156721 C 978.09723678571 1702.06060156721 976.59323678571 1706.76460156721 976.59323678571 1712.97260156721 L 976.59323678571 1741.58060156721 L 969.87323678571 1741.58060156721 L 969.87323678571 1689.16460156721 L 976.59323678571 1689.16460156721 L 976.59323678571 1698.09260156721 C 978.25723678571 1694.89260156721 980.65723678571 1692.44460156721 983.79323678571 1690.74860156721 C 986.92923678571 1689.05260156721 990.48123678571 1688.20460156721 994.44923678571 1688.20460156721 C 1000.72123678571 1688.20460156721 1005.84123678571 1690.14060156721 1009.80923678571 1694.01260156721 Z M 1030.78523678571 1701.11660156721 C 1032.92923678571 1697.05260156721 1035.90523678571 1693.91660156721 1039.71323678571 1691.70860156721 C 1043.52123678571 1689.50060156721 1047.82523678571 1688.39660156721 1052.62523678571 1688.39660156721 C 1057.61723678571 1688.39660156721 1061.92123678571 1689.54860156721 1065.53723678571 1691.85260156721 C 1069.15323678571 1694.15660156721 1071.76123678571 1697.10060156721 1073.36123678571 1700.68460156721 L 1073.36123678571 1689.16460156721 L 1080.08123678571 1689.16460156721 L 1080.08123678571 1741.58060156721 L 1073.36123678571 1741.58060156721 L 1073.36123678571 1729.96460156721 C 1071.69723678571 1733.54860156721 1069.05723678571 1736.50860156721 1065.44123678571 1738.84460156721 C 1061.82523678571 1741.18060156721 1057.52123678571 1742.34860156721 1052.52923678571 1742.34860156721 C 1047.79323678571 1742.34860156721 1043.52123678571 1741.22860156721 1039.71323678571 1738.98860156721 C 1035.90523678571 1736.74860156721 1032.92923678571 1733.58060156721 1030.78523678571 1729.48460156721 C 1028.64123678571 1725.38860156721 1027.56923678571 1720.65260156721 1027.56923678571 1715.27660156721 C 1027.56923678571 1709.90060156721 1028.64123678571 1705.18060156721 1030.78523678571 1701.11660156721 Z M 1070.76923678571 1704.23660156721 C 1069.04123678571 1701.03660156721 1066.68923678571 1698.57260156721 1063.71323678571 1696.84460156721 C 1060.73723678571 1695.11660156721 1057.45723678571 1694.25260156721 1053.87323678571 1694.25260156721 C 1050.16123678571 1694.25260156721 1046.83323678571 1695.08460156721 1043.88923678571 1696.74860156721 C 1040.94523678571 1698.41260156721 1038.62523678571 1700.82860156721 1036.92923678571 1703.99660156721 C 1035.23323678571 1707.16460156721 1034.38523678571 1710.92460156721 1034.38523678571 1715.27660156721 C 1034.38523678571 1719.56460156721 1035.23323678571 1723.32460156721 1036.92923678571 1726.55660156721 C 1038.62523678571 1729.78860156721 1040.94523678571 1732.25260156721 1043.88923678571 1733.94860156721 C 1046.83323678571 1735.64460156721 1050.16123678571 1736.49260156721 1053.87323678571 1736.49260156721 C 1057.45723678571 1736.49260156721 1060.73723678571 1735.62860156721 1063.71323678571 1733.90060156721 C 1066.68923678571 1732.17260156721 1069.04123678571 1729.70860156721 1070.76923678571 1726.50860156721 C 1072.49723678571 1723.30860156721 1073.36123678571 1719.59660156721 1073.36123678571 1715.37260156721 C 1073.36123678571 1711.14860156721 1072.49723678571 1707.43660156721 1070.76923678571 1704.23660156721 Z M 1098.75323678571 1738.17260156721 C 1094.94523678571 1735.38860156721 1092.81723678571 1731.59660156721 1092.36923678571 1726.79660156721 L 1099.28123678571 1726.79660156721 C 1099.60123678571 1729.74060156721 1100.99323678571 1732.12460156721 1103.45723678571 1733.94860156721 C 1105.92123678571 1735.77260156721 1109.23323678571 1736.68460156721 1113.39323678571 1736.68460156721 C 1117.04123678571 1736.68460156721 1119.90523678571 1735.82060156721 1121.98523678571 1734.09260156721 C 1124.06523678571 1732.36460156721 1125.10523678571 1730.22060156721 1125.10523678571 1727.66060156721 C 1125.10523678571 1725.86860156721 1124.52923678571 1724.39660156721 1123.37723678571 1723.24460156721 C 1122.22523678571 1722.09260156721 1120.76923678571 1721.18060156721 1119.00923678571 1720.50860156721 C 1117.24923678571 1719.83660156721 1114.86523678571 1719.11660156721 1111.85723678571 1718.34860156721 C 1107.95323678571 1717.32460156721 1104.78523678571 1716.30060156721 1102.35323678571 1715.27660156721 C 1099.92123678571 1714.25260156721 1097.85723678571 1712.73260156721 1096.16123678571 1710.71660156721 C 1094.46523678571 1708.70060156721 1093.61723678571 1705.99660156721 1093.61723678571 1702.60460156721 C 1093.61723678571 1700.04460156721 1094.38523678571 1697.67660156721 1095.92123678571 1695.50060156721 C 1097.45723678571 1693.32460156721 1099.63323678571 1691.59660156721 1102.44923678571 1690.31660156721 C 1105.26523678571 1689.03660156721 1108.46523678571 1688.39660156721 1112.04923678571 1688.39660156721 C 1117.68123678571 1688.39660156721 1122.22523678571 1689.82060156721 1125.68123678571 1692.66860156721 C 1129.13723678571 1695.51660156721 1130.99323678571 1699.43660156721 1131.24923678571 1704.42860156721 L 1124.52923678571 1704.42860156721 C 1124.33723678571 1701.35660156721 1123.13723678571 1698.87660156721 1120.92923678571 1696.98860156721 C 1118.72123678571 1695.10060156721 1115.69723678571 1694.15660156721 1111.85723678571 1694.15660156721 C 1108.46523678571 1694.15660156721 1105.71323678571 1694.95660156721 1103.60123678571 1696.55660156721 C 1101.48923678571 1698.15660156721 1100.43323678571 1700.14060156721 1100.43323678571 1702.50860156721 C 1100.43323678571 1704.55660156721 1101.05723678571 1706.23660156721 1102.30523678571 1707.54860156721 C 1103.55323678571 1708.86060156721 1105.10523678571 1709.88460156721 1106.96123678571 1710.62060156721 C 1108.81723678571 1711.35660156721 1111.31323678571 1712.17260156721 1114.44923678571 1713.06860156721 C 1118.22523678571 1714.09260156721 1121.23323678571 1715.08460156721 1123.47323678571 1716.04460156721 C 1125.71323678571 1717.00460156721 1127.63323678571 1718.41260156721 1129.23323678571 1720.26860156721 C 1130.83323678571 1722.12460156721 1131.66523678571 1724.58860156721 1131.72923678571 1727.66060156721 C 1131.72923678571 1730.47660156721 1130.96123678571 1732.98860156721 1129.42523678571 1735.19660156721 C 1127.88923678571 1737.40460156721 1125.74523678571 1739.14860156721 1122.99323678571 1740.42860156721 C 1120.24123678571 1741.70860156721 1117.07323678571 1742.34860156721 1113.48923678571 1742.34860156721 C 1107.47323678571 1742.34860156721 1102.56123678571 1740.95660156721 1098.75323678571 1738.17260156721 Z M 1177.42523678571 1736.10860156721 L 1201.52123678571 1736.10860156721 L 1201.52123678571 1741.58060156721 L 1170.70523678571 1741.58060156721 L 1170.70523678571 1674.47660156721 L 1177.42523678571 1674.47660156721 L 1177.42523678571 1736.10860156721 Z M 1220.76923678571 1739.03660156721 C 1216.83323678571 1736.82860156721 1213.72923678571 1733.69260156721 1211.45723678571 1729.62860156721 C 1209.18523678571 1725.56460156721 1208.04923678571 1720.81260156721 1208.04923678571 1715.37260156721 C 1208.04923678571 1709.93260156721 1209.20123678571 1705.18060156721 1211.50523678571 1701.11660156721 C 1213.80923678571 1697.05260156721 1216.94523678571 1693.91660156721 1220.91323678571 1691.70860156721 C 1224.88123678571 1689.50060156721 1229.32923678571 1688.39660156721 1234.25723678571 1688.39660156721 C 1239.18523678571 1688.39660156721 1243.64923678571 1689.50060156721 1247.64923678571 1691.70860156721 C 1251.64923678571 1693.91660156721 1254.78523678571 1697.05260156721 1257.05723678571 1701.11660156721 C 1259.32923678571 1705.18060156721 1260.46523678571 1709.93260156721 1260.46523678571 1715.37260156721 C 1260.46523678571 1720.74860156721 1259.31323678571 1725.48460156721 1257.00923678571 1729.58060156721 C 1254.70523678571 1733.67660156721 1251.53723678571 1736.82860156721 1247.50523678571 1739.03660156721 C 1243.47323678571 1741.24460156721 1238.99323678571 1742.34860156721 1234.06523678571 1742.34860156721 C 1229.13723678571 1742.34860156721 1224.70523678571 1741.24460156721 1220.76923678571 1739.03660156721 Z M 1243.66523678571 1734.14060156721 C 1246.60923678571 1732.57260156721 1248.99323678571 1730.20460156721 1250.81723678571 1727.03660156721 C 1252.64123678571 1723.86860156721 1253.55323678571 1719.98060156721 1253.55323678571 1715.37260156721 C 1253.55323678571 1710.76460156721 1252.65723678571 1706.87660156721 1250.86523678571 1703.70860156721 C 1249.07323678571 1700.54060156721 1246.70523678571 1698.17260156721 1243.76123678571 1696.60460156721 C 1240.81723678571 1695.03660156721 1237.61723678571 1694.25260156721 1234.16123678571 1694.25260156721 C 1230.70523678571 1694.25260156721 1227.50523678571 1695.03660156721 1224.56123678571 1696.60460156721 C 1221.61723678571 1698.17260156721 1219.26523678571 1700.54060156721 1217.50523678571 1703.70860156721 C 1215.74523678571 1706.87660156721 1214.86523678571 1710.76460156721 1214.86523678571 1715.37260156721 C 1214.86523678571 1719.98060156721 1215.74523678571 1723.86860156721 1217.50523678571 1727.03660156721 C 1219.26523678571 1730.20460156721 1221.60123678571 1732.57260156721 1224.51323678571 1734.14060156721 C 1227.42523678571 1735.70860156721 1230.60923678571 1736.49260156721 1234.06523678571 1736.49260156721 C 1237.52123678571 1736.49260156721 1240.72123678571 1735.70860156721 1243.66523678571 1734.14060156721 Z M 1300.30523678571 1690.26860156721 C 1303.18523678571 1685.05260156721 1307.12123678571 1680.98860156721 1312.11323678571 1678.07660156721 C 1317.10523678571 1675.16460156721 1322.67323678571 1673.70860156721 1328.81723678571 1673.70860156721 C 1336.30523678571 1673.70860156721 1342.72123678571 1675.48460156721 1348.06523678571 1679.03660156721 C 1353.40923678571 1682.58860156721 1357.29723678571 1687.59660156721 1359.72923678571 1694.06060156721 L 1351.85723678571 1694.06060156721 C 1349.93723678571 1689.51660156721 1347.00923678571 1685.96460156721 1343.07323678571 1683.40460156721 C 1339.13723678571 1680.84460156721 1334.38523678571 1679.56460156721 1328.81723678571 1679.56460156721 C 1323.88923678571 1679.56460156721 1319.45723678571 1680.71660156721 1315.52123678571 1683.02060156721 C 1311.58523678571 1685.32460156721 1308.49723678571 1688.63660156721 1306.25723678571 1692.95660156721 C 1304.01723678571 1697.27660156721 1302.89723678571 1702.28460156721 1302.89723678571 1707.98060156721 C 1302.89723678571 1713.67660156721 1304.01723678571 1718.66860156721 1306.25723678571 1722.95660156721 C 1308.49723678571 1727.24460156721 1311.58523678571 1730.54060156721 1315.52123678571 1732.84460156721 C 1319.45723678571 1735.14860156721 1323.88923678571 1736.30060156721 1328.81723678571 1736.30060156721 C 1334.38523678571 1736.30060156721 1339.13723678571 1735.03660156721 1343.07323678571 1732.50860156721 C 1347.00923678571 1729.98060156721 1349.93723678571 1726.47660156721 1351.85723678571 1721.99660156721 L 1359.72923678571 1721.99660156721 C 1357.29723678571 1728.39660156721 1353.39323678571 1733.35660156721 1348.01723678571 1736.87660156721 C 1342.64123678571 1740.39660156721 1336.24123678571 1742.15660156721 1328.81723678571 1742.15660156721 C 1322.67323678571 1742.15660156721 1317.10523678571 1740.70060156721 1312.11323678571 1737.78860156721 C 1307.12123678571 1734.87660156721 1303.18523678571 1730.82860156721 1300.30523678571 1725.64460156721 C 1297.42523678571 1720.46060156721 1295.98523678571 1714.57260156721 1295.98523678571 1707.98060156721 C 1295.98523678571 1701.38860156721 1297.42523678571 1695.48460156721 1300.30523678571 1690.26860156721 Z M 1386.56123678571 1690.89260156721 C 1389.60123678571 1689.10060156721 1393.32923678571 1688.20460156721 1397.74523678571 1688.20460156721 L 1397.74523678571 1695.21260156721 L 1395.92123678571 1695.21260156721 C 1391.05723678571 1695.21260156721 1387.15323678571 1696.52460156721 1384.20923678571 1699.14860156721 C 1381.26523678571 1701.77260156721 1379.79323678571 1706.15660156721 1379.79323678571 1712.30060156721 L 1379.79323678571 1741.58060156721 L 1373.07323678571 1741.58060156721 L 1373.07323678571 1689.16460156721 L 1379.79323678571 1689.16460156721 L 1379.79323678571 1698.47660156721 C 1381.26523678571 1695.21260156721 1383.52123678571 1692.68460156721 1386.56123678571 1690.89260156721 Z M 1455.05723678571 1717.96460156721 L 1411.56923678571 1717.96460156721 C 1411.76123678571 1721.93260156721 1412.72123678571 1725.32460156721 1414.44923678571 1728.14060156721 C 1416.17723678571 1730.95660156721 1418.44923678571 1733.08460156721 1421.26523678571 1734.52460156721 C 1424.08123678571 1735.96460156721 1427.15323678571 1736.68460156721 1430.48123678571 1736.68460156721 C 1434.83323678571 1736.68460156721 1438.49723678571 1735.62860156721 1441.47323678571 1733.51660156721 C 1444.44923678571 1731.40460156721 1446.41723678571 1728.55660156721 1447.37723678571 1724.97260156721 L 1454.48123678571 1724.97260156721 C 1453.20123678571 1730.09260156721 1450.46523678571 1734.26860156721 1446.27323678571 1737.50060156721 C 1442.08123678571 1740.73260156721 1436.81723678571 1742.34860156721 1430.48123678571 1742.34860156721 C 1425.55323678571 1742.34860156721 1421.13723678571 1741.24460156721 1417.23323678571 1739.03660156721 C 1413.32923678571 1736.82860156721 1410.27323678571 1733.69260156721 1408.06523678571 1729.62860156721 C 1405.85723678571 1725.56460156721 1404.75323678571 1720.81260156721 1404.75323678571 1715.37260156721 C 1404.75323678571 1709.93260156721 1405.84123678571 1705.16460156721 1408.01723678571 1701.06860156721 C 1410.19323678571 1696.97260156721 1413.23323678571 1693.83660156721 1417.13723678571 1691.66060156721 C 1421.04123678571 1689.48460156721 1425.48923678571 1688.39660156721 1430.48123678571 1688.39660156721 C 1435.47323678571 1688.39660156721 1439.84123678571 1689.48460156721 1443.58523678571 1691.66060156721 C 1447.32923678571 1693.83660156721 1450.20923678571 1696.76460156721 1452.22523678571 1700.44460156721 C 1454.24123678571 1704.12460156721 1455.24923678571 1708.20460156721 1455.24923678571 1712.68460156721 C 1455.24923678571 1714.98860156721 1455.18523678571 1716.74860156721 1455.05723678571 1717.96460156721 Z M 1446.08123678571 1702.50860156721 C 1444.44923678571 1699.75660156721 1442.22523678571 1697.67660156721 1439.40923678571 1696.26860156721 C 1436.59323678571 1694.86060156721 1433.52123678571 1694.15660156721 1430.19323678571 1694.15660156721 C 1425.20123678571 1694.15660156721 1420.94523678571 1695.75660156721 1417.42523678571 1698.95660156721 C 1413.90523678571 1702.15660156721 1411.95323678571 1706.66860156721 1411.56923678571 1712.49260156721 L 1448.43323678571 1712.49260156721 C 1448.49723678571 1708.58860156721 1447.71323678571 1705.26060156721 1446.08123678571 1702.50860156721 Z M 1467.68123678571 1701.11660156721 C 1469.82523678571 1697.05260156721 1472.80123678571 1693.91660156721 1476.60923678571 1691.70860156721 C 1480.41723678571 1689.50060156721 1484.72123678571 1688.39660156721 1489.52123678571 1688.39660156721 C 1494.51323678571 1688.39660156721 1498.81723678571 1689.54860156721 1502.43323678571 1691.85260156721 C 1506.04923678571 1694.15660156721 1508.65723678571 1697.10060156721 1510.25723678571 1700.68460156721 L 1510.25723678571 1689.16460156721 L 1516.97723678571 1689.16460156721 L 1516.97723678571 1741.58060156721 L 1510.25723678571 1741.58060156721 L 1510.25723678571 1729.96460156721 C 1508.59323678571 1733.54860156721 1505.95323678571 1736.50860156721 1502.33723678571 1738.84460156721 C 1498.72123678571 1741.18060156721 1494.41723678571 1742.34860156721 1489.42523678571 1742.34860156721 C 1484.68923678571 1742.34860156721 1480.41723678571 1741.22860156721 1476.60923678571 1738.98860156721 C 1472.80123678571 1736.74860156721 1469.82523678571 1733.58060156721 1467.68123678571 1729.48460156721 C 1465.53723678571 1725.38860156721 1464.46523678571 1720.65260156721 1464.46523678571 1715.27660156721 C 1464.46523678571 1709.90060156721 1465.53723678571 1705.18060156721 1467.68123678571 1701.11660156721 Z M 1507.66523678571 1704.23660156721 C 1505.93723678571 1701.03660156721 1503.58523678571 1698.57260156721 1500.60923678571 1696.84460156721 C 1497.63323678571 1695.11660156721 1494.35323678571 1694.25260156721 1490.76923678571 1694.25260156721 C 1487.05723678571 1694.25260156721 1483.72923678571 1695.08460156721 1480.78523678571 1696.74860156721 C 1477.84123678571 1698.41260156721 1475.52123678571 1700.82860156721 1473.82523678571 1703.99660156721 C 1472.12923678571 1707.16460156721 1471.28123678571 1710.92460156721 1471.28123678571 1715.27660156721 C 1471.28123678571 1719.56460156721 1472.12923678571 1723.32460156721 1473.82523678571 1726.55660156721 C 1475.52123678571 1729.78860156721 1477.84123678571 1732.25260156721 1480.78523678571 1733.94860156721 C 1483.72923678571 1735.64460156721 1487.05723678571 1736.49260156721 1490.76923678571 1736.49260156721 C 1494.35323678571 1736.49260156721 1497.63323678571 1735.62860156721 1500.60923678571 1733.90060156721 C 1503.58523678571 1732.17260156721 1505.93723678571 1729.70860156721 1507.66523678571 1726.50860156721 C 1509.39323678571 1723.30860156721 1510.25723678571 1719.59660156721 1510.25723678571 1715.37260156721 C 1510.25723678571 1711.14860156721 1509.39323678571 1707.43660156721 1507.66523678571 1704.23660156721 Z M 1609.76123678571 1694.01260156721 C 1613.63323678571 1697.88460156721 1615.56923678571 1703.50060156721 1615.56923678571 1710.86060156721 L 1615.56923678571 1741.58060156721 L 1608.94523678571 1741.58060156721 L 1608.94523678571 1711.62860156721 C 1608.94523678571 1705.93260156721 1607.56923678571 1701.58060156721 1604.81723678571 1698.57260156721 C 1602.06523678571 1695.56460156721 1598.32123678571 1694.06060156721 1593.58523678571 1694.06060156721 C 1588.65723678571 1694.06060156721 1584.72123678571 1695.69260156721 1581.77723678571 1698.95660156721 C 1578.83323678571 1702.22060156721 1577.36123678571 1706.95660156721 1577.36123678571 1713.16460156721 L 1577.36123678571 1741.58060156721 L 1570.73723678571 1741.58060156721 L 1570.73723678571 1711.62860156721 C 1570.73723678571 1705.93260156721 1569.36123678571 1701.58060156721 1566.60923678571 1698.57260156721 C 1563.85723678571 1695.56460156721 1560.08123678571 1694.06060156721 1555.28123678571 1694.06060156721 C 1550.35323678571 1694.06060156721 1546.41723678571 1695.69260156721 1543.47323678571 1698.95660156721 C 1540.52923678571 1702.22060156721 1539.05723678571 1706.95660156721 1539.05723678571 1713.16460156721 L 1539.05723678571 1741.58060156721 L 1532.33723678571 1741.58060156721 L 1532.33723678571 1689.16460156721 L 1539.05723678571 1689.16460156721 L 1539.05723678571 1698.18860156721 C 1540.72123678571 1694.92460156721 1543.08923678571 1692.44460156721 1546.16123678571 1690.74860156721 C 1549.23323678571 1689.05260156721 1552.65723678571 1688.20460156721 1556.43323678571 1688.20460156721 C 1560.97723678571 1688.20460156721 1564.96123678571 1689.29260156721 1568.38523678571 1691.46860156721 C 1571.80923678571 1693.64460156721 1574.28923678571 1696.84460156721 1575.82523678571 1701.06860156721 C 1577.23323678571 1696.90860156721 1579.64923678571 1693.72460156721 1583.07323678571 1691.51660156721 C 1586.49723678571 1689.30860156721 1590.38523678571 1688.20460156721 1594.73723678571 1688.20460156721 C 1600.88123678571 1688.20460156721 1605.88923678571 1690.14060156721 1609.76123678571 1694.01260156721 Z M 1640.09723678571 1739.03660156721 C 1636.16123678571 1736.82860156721 1633.05723678571 1733.69260156721 1630.78523678571 1729.62860156721 C 1628.51323678571 1725.56460156721 1627.37723678571 1720.81260156721 1627.37723678571 1715.37260156721 C 1627.37723678571 1709.93260156721 1628.52923678571 1705.18060156721 1630.83323678571 1701.11660156721 C 1633.13723678571 1697.05260156721 1636.27323678571 1693.91660156721 1640.24123678571 1691.70860156721 C 1644.20923678571 1689.50060156721 1648.65723678571 1688.39660156721 1653.58523678571 1688.39660156721 C 1658.51323678571 1688.39660156721 1662.97723678571 1689.50060156721 1666.97723678571 1691.70860156721 C 1670.97723678571 1693.91660156721 1674.11323678571 1697.05260156721 1676.38523678571 1701.11660156721 C 1678.65723678571 1705.18060156721 1679.79323678571 1709.93260156721 1679.79323678571 1715.37260156721 C 1679.79323678571 1720.74860156721 1678.64123678571 1725.48460156721 1676.33723678571 1729.58060156721 C 1674.03323678571 1733.67660156721 1670.86523678571 1736.82860156721 1666.83323678571 1739.03660156721 C 1662.80123678571 1741.24460156721 1658.32123678571 1742.34860156721 1653.39323678571 1742.34860156721 C 1648.46523678571 1742.34860156721 1644.03323678571 1741.24460156721 1640.09723678571 1739.03660156721 Z M 1662.99323678571 1734.14060156721 C 1665.93723678571 1732.57260156721 1668.32123678571 1730.20460156721 1670.14523678571 1727.03660156721 C 1671.96923678571 1723.86860156721 1672.88123678571 1719.98060156721 1672.88123678571 1715.37260156721 C 1672.88123678571 1710.76460156721 1671.98523678571 1706.87660156721 1670.19323678571 1703.70860156721 C 1668.40123678571 1700.54060156721 1666.03323678571 1698.17260156721 1663.08923678571 1696.60460156721 C 1660.14523678571 1695.03660156721 1656.94523678571 1694.25260156721 1653.48923678571 1694.25260156721 C 1650.03323678571 1694.25260156721 1646.83323678571 1695.03660156721 1643.88923678571 1696.60460156721 C 1640.94523678571 1698.17260156721 1638.59323678571 1700.54060156721 1636.83323678571 1703.70860156721 C 1635.07323678571 1706.87660156721 1634.19323678571 1710.76460156721 1634.19323678571 1715.37260156721 C 1634.19323678571 1719.98060156721 1635.07323678571 1723.86860156721 1636.83323678571 1727.03660156721 C 1638.59323678571 1730.20460156721 1640.92923678571 1732.57260156721 1643.84123678571 1734.14060156721 C 1646.75323678571 1735.70860156721 1649.93723678571 1736.49260156721 1653.39323678571 1736.49260156721 C 1656.84923678571 1736.49260156721 1660.04923678571 1735.70860156721 1662.99323678571 1734.14060156721 Z M 1695.39323678571 1738.17260156721 C 1691.58523678571 1735.38860156721 1689.45723678571 1731.59660156721 1689.00923678571 1726.79660156721 L 1695.92123678571 1726.79660156721 C 1696.24123678571 1729.74060156721 1697.63323678571 1732.12460156721 1700.09723678571 1733.94860156721 C 1702.56123678571 1735.77260156721 1705.87323678571 1736.68460156721 1710.03323678571 1736.68460156721 C 1713.68123678571 1736.68460156721 1716.54523678571 1735.82060156721 1718.62523678571 1734.09260156721 C 1720.70523678571 1732.36460156721 1721.74523678571 1730.22060156721 1721.74523678571 1727.66060156721 C 1721.74523678571 1725.86860156721 1721.16923678571 1724.39660156721 1720.01723678571 1723.24460156721 C 1718.86523678571 1722.09260156721 1717.40923678571 1721.18060156721 1715.64923678571 1720.50860156721 C 1713.88923678571 1719.83660156721 1711.50523678571 1719.11660156721 1708.49723678571 1718.34860156721 C 1704.59323678571 1717.32460156721 1701.42523678571 1716.30060156721 1698.99323678571 1715.27660156721 C 1696.56123678571 1714.25260156721 1694.49723678571 1712.73260156721 1692.80123678571 1710.71660156721 C 1691.10523678571 1708.70060156721 1690.25723678571 1705.99660156721 1690.25723678571 1702.60460156721 C 1690.25723678571 1700.04460156721 1691.02523678571 1697.67660156721 1692.56123678571 1695.50060156721 C 1694.09723678571 1693.32460156721 1696.27323678571 1691.59660156721 1699.08923678571 1690.31660156721 C 1701.90523678571 1689.03660156721 1705.10523678571 1688.39660156721 1708.68923678571 1688.39660156721 C 1714.32123678571 1688.39660156721 1718.86523678571 1689.82060156721 1722.32123678571 1692.66860156721 C 1725.77723678571 1695.51660156721 1727.63323678571 1699.43660156721 1727.88923678571 1704.42860156721 L 1721.16923678571 1704.42860156721 C 1720.97723678571 1701.35660156721 1719.77723678571 1698.87660156721 1717.56923678571 1696.98860156721 C 1715.36123678571 1695.10060156721 1712.33723678571 1694.15660156721 1708.49723678571 1694.15660156721 C 1705.10523678571 1694.15660156721 1702.35323678571 1694.95660156721 1700.24123678571 1696.55660156721 C 1698.12923678571 1698.15660156721 1697.07323678571 1700.14060156721 1697.07323678571 1702.50860156721 C 1697.07323678571 1704.55660156721 1697.69723678571 1706.23660156721 1698.94523678571 1707.54860156721 C 1700.19323678571 1708.86060156721 1701.74523678571 1709.88460156721 1703.60123678571 1710.62060156721 C 1705.45723678571 1711.35660156721 1707.95323678571 1712.17260156721 1711.08923678571 1713.06860156721 C 1714.86523678571 1714.09260156721 1717.87323678571 1715.08460156721 1720.11323678571 1716.04460156721 C 1722.35323678571 1717.00460156721 1724.27323678571 1718.41260156721 1725.87323678571 1720.26860156721 C 1727.47323678571 1722.12460156721 1728.30523678571 1724.58860156721 1728.36923678571 1727.66060156721 C 1728.36923678571 1730.47660156721 1727.60123678571 1732.98860156721 1726.06523678571 1735.19660156721 C 1724.52923678571 1737.40460156721 1722.38523678571 1739.14860156721 1719.63323678571 1740.42860156721 C 1716.88123678571 1741.70860156721 1713.71323678571 1742.34860156721 1710.12923678571 1742.34860156721 C 1704.11323678571 1742.34860156721 1699.20123678571 1740.95660156721 1695.39323678571 1738.17260156721 Z" />
</svg>